<svg xmlns="http://www.w3.org/2000/svg" xmlns:xlink="http://www.w3.org/1999/xlink" width="1480" zoomAndPan="magnify" viewBox="0 0 1110 1109.999945" height="1480" preserveAspectRatio="xMidYMid meet" version="1.2"><defs/><g id="1f1b8d29a5"><path style=" stroke:none;fill-rule:nonzero;fill:#040606;fill-opacity:1;" d="M 1003.121094 103.867188 C 930.515625 51.636719 765.625 113.023438 687.84375 219.519531 C 625.414062 305.414062 630.503906 388.339844 677.578125 449.726562 L 587.5 570.46875 L 501.574219 455.914062 C 537.371094 423.101562 543.476562 366.886719 514.808594 326.949219 L 339.820312 86.402344 C 330.578125 73.171875 312.171875 70.035156 298.855469 80.296875 C 285.535156 89.539062 282.484375 107.9375 292.746094 121.25 L 437.027344 318.726562 C 441.097656 324.832031 440.082031 333.054688 433.972656 337.125 L 408.359375 355.609375 C 402.25 359.679688 394.023438 358.660156 389.953125 352.472656 L 245.585938 154.996094 C 236.425781 141.683594 217.933594 138.632812 204.703125 148.890625 C 191.386719 159.066406 188.246094 176.53125 198.511719 189.757812 L 342.875 386.304688 C 346.945312 392.40625 345.929688 400.632812 339.820312 404.703125 L 314.207031 423.101562 C 308.097656 427.171875 299.871094 426.15625 295.800781 420.050781 L 151.433594 222.574219 C 142.1875 209.261719 123.78125 206.125 110.464844 216.382812 C 97.148438 225.625 94.09375 244.023438 104.359375 257.335938 L 279.429688 497.800781 C 309.117188 537.738281 362.300781 549.015625 405.304688 525.445312 L 509.71875 673.824219 L 317.257812 931.671875 C 293.765625 962.367188 300.890625 1006.371094 331.59375 1028.925781 C 362.300781 1051.394531 406.320312 1044.273438 427.867188 1012.5625 L 587.5 785.324219 L 750.355469 1016.632812 C 772.832031 1048.34375 815.835938 1055.550781 847.5625 1032.996094 C 878.265625 1010.527344 885.476562 966.523438 861.894531 935.828125 L 666.296875 674.84375 L 774.871094 520.355469 C 847.5625 545.878906 928.394531 525.445312 990.824219 439.464844 C 1068.6875 332.039062 1075.8125 156.011719 1003.121094 103.867188 "/><g style="fill:#000000;fill-opacity:1;"><g transform="translate(457.519649, 923.690139)"><path style="stroke:none" d="M 17.359375 -22.046875 L 14.578125 -18.515625 L 5.203125 -21.390625 L -2.5625 -11.53125 L 2.578125 -3.265625 L -0.03125 0.03125 L -16.5 -27.640625 L -13.828125 -31.015625 Z M 1.984375 -22.421875 C -4.640625 -24.503906 -8.398438 -25.691406 -9.296875 -25.984375 C -10.191406 -26.285156 -11.328125 -26.742188 -12.703125 -27.359375 L -12.78125 -27.265625 C -11.4375 -25.710938 -10.28125 -24.15625 -9.3125 -22.59375 L -4.34375 -14.390625 Z M 1.984375 -22.421875 "/></g><g transform="translate(474.855501, 901.684822)"><path style="stroke:none" d="M 12.75 -16.171875 L 10.4375 -13.25 L 0.046875 -21.4375 C -1.703125 -22.820312 -3.148438 -23.457031 -4.296875 -23.34375 C -5.441406 -23.238281 -6.457031 -22.628906 -7.34375 -21.515625 C -8.019531 -20.648438 -8.445312 -19.664062 -8.625 -18.5625 C -8.8125 -17.457031 -8.648438 -16.445312 -8.140625 -15.53125 C -7.640625 -14.613281 -6.691406 -13.601562 -5.296875 -12.5 L 4.046875 -5.140625 L 1.765625 -2.234375 L -15.328125 -15.703125 L -13.28125 -18.3125 L -10.859375 -16.40625 L -10.796875 -16.46875 C -11.253906 -17.820312 -11.363281 -19.128906 -11.125 -20.390625 C -10.894531 -21.648438 -10.3125 -22.875 -9.375 -24.0625 C -8.664062 -24.957031 -7.800781 -25.71875 -6.78125 -26.34375 C -5.769531 -26.96875 -4.742188 -27.273438 -3.703125 -27.265625 C -2.660156 -27.265625 -1.722656 -27.039062 -0.890625 -26.59375 C -0.0546875 -26.144531 0.984375 -25.429688 2.234375 -24.453125 Z M 12.75 -16.171875 "/></g><g transform="translate(489.310505, 883.336318)"><path style="stroke:none" d="M -3.0625 -21.453125 C -4.09375 -22.046875 -5.085938 -22.210938 -6.046875 -21.953125 C -7.003906 -21.703125 -7.925781 -21.015625 -8.8125 -19.890625 C -9.6875 -18.785156 -10.203125 -17.742188 -10.359375 -16.765625 C -10.523438 -15.785156 -10.25 -15.007812 -9.53125 -14.4375 C -8.851562 -13.914062 -8.15625 -13.8125 -7.4375 -14.125 C -6.71875 -14.445312 -5.519531 -15.238281 -3.84375 -16.5 C -1.957031 -17.9375 -0.488281 -18.960938 0.5625 -19.578125 C 1.625 -20.203125 2.671875 -20.507812 3.703125 -20.5 C 4.742188 -20.488281 5.835938 -20.035156 6.984375 -19.140625 C 8.503906 -17.941406 9.296875 -16.3125 9.359375 -14.25 C 9.421875 -12.1875 8.628906 -10.113281 6.984375 -8.03125 C 5.273438 -5.863281 3.476562 -4.53125 1.59375 -4.03125 C -0.289062 -3.539062 -2.257812 -3.875 -4.3125 -5.03125 L -2.46875 -8.28125 C -1.15625 -7.476562 0.0820312 -7.210938 1.25 -7.484375 C 2.425781 -7.753906 3.535156 -8.550781 4.578125 -9.875 C 5.578125 -11.144531 6.078125 -12.328125 6.078125 -13.421875 C 6.078125 -14.515625 5.695312 -15.363281 4.9375 -15.96875 C 4.414062 -16.375 3.875 -16.539062 3.3125 -16.46875 C 2.75 -16.394531 2.207031 -16.1875 1.6875 -15.84375 C 1.164062 -15.507812 0.0664062 -14.679688 -1.609375 -13.359375 C -4.109375 -11.378906 -6.078125 -10.328125 -7.515625 -10.203125 C -8.953125 -10.078125 -10.242188 -10.472656 -11.390625 -11.390625 C -12.816406 -12.503906 -13.546875 -13.992188 -13.578125 -15.859375 C -13.609375 -17.722656 -12.867188 -19.617188 -11.359375 -21.546875 C -9.753906 -23.585938 -8.101562 -24.859375 -6.40625 -25.359375 C -4.707031 -25.867188 -2.972656 -25.609375 -1.203125 -24.578125 Z M -3.0625 -21.453125 "/></g><g transform="translate(502.306048, 866.840385)"><path style="stroke:none" d="M 13.40625 -17.015625 L 11.015625 -13.984375 C 10.253906 -14.128906 9.394531 -14.484375 8.4375 -15.046875 C 8.582031 -11.785156 7.769531 -9.03125 6 -6.78125 C 4.570312 -4.96875 2.992188 -3.894531 1.265625 -3.5625 C -0.460938 -3.226562 -2.066406 -3.644531 -3.546875 -4.8125 C -4.960938 -5.925781 -5.734375 -7.347656 -5.859375 -9.078125 C -5.984375 -10.816406 -5.21875 -13.039062 -3.5625 -15.75 L -1.828125 -18.78125 C -1.191406 -19.925781 -0.738281 -20.914062 -0.46875 -21.75 C -1.332031 -22.425781 -1.96875 -22.878906 -2.375 -23.109375 C -2.78125 -23.347656 -3.273438 -23.488281 -3.859375 -23.53125 C -4.441406 -23.570312 -5.082031 -23.394531 -5.78125 -23 C -6.476562 -22.601562 -7.21875 -21.914062 -8 -20.9375 C -8.976562 -19.695312 -9.519531 -18.53125 -9.625 -17.4375 C -9.726562 -16.351562 -9.265625 -15.179688 -8.234375 -13.921875 L -10.84375 -11.375 C -12.34375 -13.0625 -13.023438 -14.894531 -12.890625 -16.875 C -12.753906 -18.863281 -11.796875 -20.984375 -10.015625 -23.234375 C -8.410156 -25.285156 -6.921875 -26.550781 -5.546875 -27.03125 C -4.179688 -27.519531 -2.984375 -27.535156 -1.953125 -27.078125 C -0.921875 -26.628906 0.269531 -25.867188 1.625 -24.796875 L 5.515625 -21.734375 C 7.890625 -19.859375 9.519531 -18.648438 10.40625 -18.109375 C 11.289062 -17.566406 12.289062 -17.203125 13.40625 -17.015625 Z M 2.859375 -19.109375 L 1.828125 -19.9375 C 1.140625 -18.03125 0.0820312 -15.863281 -1.34375 -13.4375 C -2.78125 -11.007812 -2.722656 -9.179688 -1.171875 -7.953125 C -0.378906 -7.335938 0.5 -7.125 1.46875 -7.3125 C 2.445312 -7.507812 3.367188 -8.160156 4.234375 -9.265625 C 5.367188 -10.691406 5.9375 -12.285156 5.9375 -14.046875 C 5.945312 -15.804688 4.921875 -17.492188 2.859375 -19.109375 Z M 2.859375 -19.109375 "/></g><g transform="translate(516.761052, 848.491881)"><path style="stroke:none" d="M -7.5625 -24.46875 L -5.671875 -21.359375 C -6.660156 -20.972656 -7.425781 -20.4375 -7.96875 -19.75 C -8.820312 -18.664062 -8.984375 -17.457031 -8.453125 -16.125 C -7.921875 -14.800781 -6.78125 -13.445312 -5.03125 -12.0625 L 3.9375 -5 L 1.65625 -2.109375 L -15.4375 -15.578125 L -13.359375 -18.21875 L -10.78125 -16.1875 L -10.71875 -16.25 C -11.96875 -18.726562 -12.003906 -20.710938 -10.828125 -22.203125 C -10.046875 -23.191406 -8.957031 -23.945312 -7.5625 -24.46875 Z M -7.5625 -24.46875 "/></g><g transform="translate(525.416287, 837.505332)"><path style="stroke:none" d=""/></g><g transform="translate(532.637443, 828.339135)"><path style="stroke:none" d="M 18.484375 -23.453125 L 15.390625 -19.53125 C 9.804688 -20.101562 6.363281 -20.4375 5.0625 -20.53125 C 3.769531 -20.632812 2.578125 -20.609375 1.484375 -20.453125 C 0.390625 -20.304688 -0.457031 -20.015625 -1.0625 -19.578125 C -1.664062 -19.148438 -2.320312 -18.484375 -3.03125 -17.578125 L -5.875 -13.96875 L 4.546875 -5.765625 L 2.078125 -2.640625 L -21.53125 -21.25 L -13.296875 -31.703125 C -12.160156 -33.140625 -11.125 -34.265625 -10.1875 -35.078125 C -9.25 -35.898438 -8.195312 -36.441406 -7.03125 -36.703125 C -5.875 -36.972656 -4.695312 -36.953125 -3.5 -36.640625 C -2.300781 -36.335938 -1.207031 -35.796875 -0.21875 -35.015625 C 1.5625 -33.609375 2.550781 -31.914062 2.75 -29.9375 C 2.945312 -27.957031 2.347656 -25.773438 0.953125 -23.390625 L 1 -23.34375 C 2.9375 -24.363281 5.535156 -24.710938 8.796875 -24.390625 Z M -8.6875 -16.1875 L -3.40625 -22.890625 C -2.34375 -24.242188 -1.613281 -25.40625 -1.21875 -26.375 C -0.832031 -27.34375 -0.785156 -28.328125 -1.078125 -29.328125 C -1.367188 -30.328125 -1.925781 -31.148438 -2.75 -31.796875 C -3.820312 -32.640625 -5.046875 -32.96875 -6.421875 -32.78125 C -7.796875 -32.59375 -9.191406 -31.597656 -10.609375 -29.796875 L -16.484375 -22.328125 Z M -8.6875 -16.1875 "/></g><g transform="translate(551.407374, 804.513465)"><path style="stroke:none" d="M 5.625 -23.21875 L -4.453125 -10.421875 C -2.484375 -9.046875 -0.617188 -8.441406 1.140625 -8.609375 C 2.910156 -8.785156 4.363281 -9.59375 5.5 -11.03125 C 6.363281 -12.132812 6.796875 -13.296875 6.796875 -14.515625 C 6.796875 -15.734375 6.363281 -17.003906 5.5 -18.328125 L 8.21875 -21.015625 C 9.625 -19.117188 10.296875 -17.148438 10.234375 -15.109375 C 10.179688 -13.078125 9.394531 -11.09375 7.875 -9.15625 C 5.84375 -6.59375 3.472656 -5.207031 0.765625 -5 C -1.941406 -4.789062 -4.660156 -5.757812 -7.390625 -7.90625 C -10.085938 -10.03125 -11.722656 -12.453125 -12.296875 -15.171875 C -12.867188 -17.898438 -12.148438 -20.535156 -10.140625 -23.078125 C -9.160156 -24.328125 -7.941406 -25.3125 -6.484375 -26.03125 C -5.023438 -26.75 -3.320312 -26.992188 -1.375 -26.765625 C 0.570312 -26.546875 2.90625 -25.363281 5.625 -23.21875 Z M 0.890625 -22.109375 C -0.929688 -23.359375 -2.601562 -23.804688 -4.125 -23.453125 C -5.65625 -23.097656 -6.867188 -22.351562 -7.765625 -21.21875 C -8.847656 -19.851562 -9.28125 -18.367188 -9.0625 -16.765625 C -8.84375 -15.171875 -8.0625 -13.734375 -6.71875 -12.453125 Z M 0.890625 -22.109375 "/></g><g transform="translate(565.862378, 786.164962)"><path style="stroke:none" d="M 4.015625 -5.109375 L 1.734375 -2.203125 L -21.875 -20.8125 L -19.59375 -23.71875 Z M 4.015625 -5.109375 "/></g><g transform="translate(571.636765, 778.835225)"><path style="stroke:none" d="M 4.015625 -5.109375 L 1.734375 -2.203125 L -15.359375 -15.671875 L -13.078125 -18.578125 Z M -16.3125 -21.125 L -18.59375 -18.21875 L -21.875 -20.8125 L -19.59375 -23.71875 Z M -16.3125 -21.125 "/></g><g transform="translate(577.411152, 771.505489)"><path style="stroke:none" d="M 5.625 -23.21875 L -4.453125 -10.421875 C -2.484375 -9.046875 -0.617188 -8.441406 1.140625 -8.609375 C 2.910156 -8.785156 4.363281 -9.59375 5.5 -11.03125 C 6.363281 -12.132812 6.796875 -13.296875 6.796875 -14.515625 C 6.796875 -15.734375 6.363281 -17.003906 5.5 -18.328125 L 8.21875 -21.015625 C 9.625 -19.117188 10.296875 -17.148438 10.234375 -15.109375 C 10.179688 -13.078125 9.394531 -11.09375 7.875 -9.15625 C 5.84375 -6.59375 3.472656 -5.207031 0.765625 -5 C -1.941406 -4.789062 -4.660156 -5.757812 -7.390625 -7.90625 C -10.085938 -10.03125 -11.722656 -12.453125 -12.296875 -15.171875 C -12.867188 -17.898438 -12.148438 -20.535156 -10.140625 -23.078125 C -9.160156 -24.328125 -7.941406 -25.3125 -6.484375 -26.03125 C -5.023438 -26.75 -3.320312 -26.992188 -1.375 -26.765625 C 0.570312 -26.546875 2.90625 -25.363281 5.625 -23.21875 Z M 0.890625 -22.109375 C -0.929688 -23.359375 -2.601562 -23.804688 -4.125 -23.453125 C -5.65625 -23.097656 -6.867188 -22.351562 -7.765625 -21.21875 C -8.847656 -19.851562 -9.28125 -18.367188 -9.0625 -16.765625 C -8.84375 -15.171875 -8.0625 -13.734375 -6.71875 -12.453125 Z M 0.890625 -22.109375 "/></g><g transform="translate(591.866155, 753.156986)"><path style="stroke:none" d="M -15.640625 -28.953125 L -13.4375 -26.515625 C -14 -26.015625 -14.5 -25.488281 -14.9375 -24.9375 C -15.5 -24.226562 -15.804688 -23.535156 -15.859375 -22.859375 C -15.910156 -22.191406 -15.351562 -21.394531 -14.1875 -20.46875 L -12.578125 -19.203125 L -9.984375 -22.5 L -7.734375 -20.734375 L -10.328125 -17.4375 L 4.515625 -5.734375 L 2.234375 -2.828125 L -12.609375 -14.53125 L -14.640625 -11.953125 L -16.890625 -13.71875 L -14.859375 -16.296875 L -16.71875 -17.75 C -17.570312 -18.425781 -18.285156 -19.117188 -18.859375 -19.828125 C -19.429688 -20.546875 -19.722656 -21.472656 -19.734375 -22.609375 C -19.753906 -23.753906 -19.195312 -25.046875 -18.0625 -26.484375 C -17.382812 -27.335938 -16.578125 -28.160156 -15.640625 -28.953125 Z M -15.640625 -28.953125 "/></g><g transform="translate(599.087312, 743.990788)"><path style="stroke:none" d=""/></g><g transform="translate(606.308468, 734.824591)"><path style="stroke:none" d="M -6.1875 -34.96875 L -16.265625 -22.171875 L -8.953125 -16.40625 L -0.21875 -27.5 L 2.578125 -25.296875 L -6.15625 -14.203125 L 4.546875 -5.765625 L 2.078125 -2.640625 L -21.53125 -21.25 L -8.984375 -37.171875 Z M -6.1875 -34.96875 "/></g><g transform="translate(622.184859, 714.671845)"><path style="stroke:none" d="M -10.265625 -22.9375 C -8.441406 -25.238281 -6.179688 -26.554688 -3.484375 -26.890625 C -0.785156 -27.234375 1.945312 -26.3125 4.71875 -24.125 C 8.082031 -21.476562 9.8125 -18.785156 9.90625 -16.046875 C 10.007812 -13.316406 9.25 -10.921875 7.625 -8.859375 C 5.925781 -6.691406 3.738281 -5.378906 1.0625 -4.921875 C -1.613281 -4.460938 -4.507812 -5.457031 -7.625 -7.90625 C -10.625 -10.269531 -12.257812 -12.796875 -12.53125 -15.484375 C -12.800781 -18.179688 -12.046875 -20.664062 -10.265625 -22.9375 Z M 5.25 -10.734375 C 6.550781 -12.378906 6.925781 -14.113281 6.375 -15.9375 C 5.820312 -17.757812 4.546875 -19.457031 2.546875 -21.03125 C 0.410156 -22.71875 -1.578125 -23.5 -3.421875 -23.375 C -5.273438 -23.257812 -6.765625 -22.492188 -7.890625 -21.078125 C -9.046875 -19.597656 -9.445312 -17.953125 -9.09375 -16.140625 C -8.738281 -14.328125 -7.472656 -12.566406 -5.296875 -10.859375 C -3.128906 -9.148438 -1.113281 -8.34375 0.75 -8.4375 C 2.613281 -8.53125 4.113281 -9.296875 5.25 -10.734375 Z M 5.25 -10.734375 "/></g><g transform="translate(636.639863, 696.323341)"><path style="stroke:none" d="M 12.65625 -16.0625 L 10.609375 -13.46875 L 8.09375 -15.453125 L 8.03125 -15.375 C 8.945312 -12.53125 8.515625 -9.976562 6.734375 -7.71875 C 5.785156 -6.519531 4.632812 -5.628906 3.28125 -5.046875 C 1.9375 -4.460938 0.644531 -4.382812 -0.59375 -4.8125 C -1.832031 -5.238281 -3.226562 -6.0625 -4.78125 -7.28125 L -15.375 -15.640625 L -13.09375 -18.53125 L -3.625 -11.0625 C -2.101562 -9.875 -0.957031 -9.097656 -0.1875 -8.734375 C 0.570312 -8.367188 1.40625 -8.320312 2.3125 -8.59375 C 3.226562 -8.875 4.015625 -9.429688 4.671875 -10.265625 C 5.535156 -11.367188 5.96875 -12.703125 5.96875 -14.265625 C 5.976562 -15.828125 4.789062 -17.546875 2.40625 -19.421875 L -6.734375 -26.625 L -4.4375 -29.53125 Z M 12.65625 -16.0625 "/></g><g transform="translate(651.094867, 677.974837)"><path style="stroke:none" d="M 12.75 -16.171875 L 10.4375 -13.25 L 0.046875 -21.4375 C -1.703125 -22.820312 -3.148438 -23.457031 -4.296875 -23.34375 C -5.441406 -23.238281 -6.457031 -22.628906 -7.34375 -21.515625 C -8.019531 -20.648438 -8.445312 -19.664062 -8.625 -18.5625 C -8.8125 -17.457031 -8.648438 -16.445312 -8.140625 -15.53125 C -7.640625 -14.613281 -6.691406 -13.601562 -5.296875 -12.5 L 4.046875 -5.140625 L 1.765625 -2.234375 L -15.328125 -15.703125 L -13.28125 -18.3125 L -10.859375 -16.40625 L -10.796875 -16.46875 C -11.253906 -17.820312 -11.363281 -19.128906 -11.125 -20.390625 C -10.894531 -21.648438 -10.3125 -22.875 -9.375 -24.0625 C -8.664062 -24.957031 -7.800781 -25.71875 -6.78125 -26.34375 C -5.769531 -26.96875 -4.742188 -27.273438 -3.703125 -27.265625 C -2.660156 -27.265625 -1.722656 -27.039062 -0.890625 -26.59375 C -0.0546875 -26.144531 0.984375 -25.429688 2.234375 -24.453125 Z M 12.75 -16.171875 "/></g><g transform="translate(665.549871, 659.626333)"><path style="stroke:none" d="M 12.625 -16.03125 L 10.484375 -13.3125 L 8.3125 -15.03125 L 8.265625 -14.96875 C 9.171875 -12.582031 8.796875 -10.335938 7.140625 -8.234375 C 5.484375 -6.140625 3.269531 -5.039062 0.5 -4.9375 C -2.257812 -4.84375 -4.960938 -5.835938 -7.609375 -7.921875 C -10.359375 -10.085938 -12.015625 -12.460938 -12.578125 -15.046875 C -13.140625 -17.628906 -12.566406 -20.003906 -10.859375 -22.171875 C -9.242188 -24.210938 -7.242188 -25.15625 -4.859375 -25 L -4.796875 -25.0625 L -13.265625 -31.734375 L -10.984375 -34.640625 Z M 5 -10.40625 C 5.988281 -11.664062 6.304688 -13.144531 5.953125 -14.84375 C 5.609375 -16.550781 4.378906 -18.242188 2.265625 -19.921875 C 0.179688 -21.554688 -1.789062 -22.457031 -3.65625 -22.625 C -5.53125 -22.789062 -7.0625 -22.125 -8.25 -20.625 C -9.4375 -19.113281 -9.722656 -17.5 -9.109375 -15.78125 C -8.503906 -14.0625 -7.222656 -12.429688 -5.265625 -10.890625 C -3.835938 -9.765625 -2.472656 -9.023438 -1.171875 -8.671875 C 0.128906 -8.316406 1.320312 -8.3125 2.40625 -8.65625 C 3.488281 -9.007812 4.351562 -9.59375 5 -10.40625 Z M 5 -10.40625 "/></g><g transform="translate(680.004874, 641.27783)"><path style="stroke:none" d="M 13.40625 -17.015625 L 11.015625 -13.984375 C 10.253906 -14.128906 9.394531 -14.484375 8.4375 -15.046875 C 8.582031 -11.785156 7.769531 -9.03125 6 -6.78125 C 4.570312 -4.96875 2.992188 -3.894531 1.265625 -3.5625 C -0.460938 -3.226562 -2.066406 -3.644531 -3.546875 -4.8125 C -4.960938 -5.925781 -5.734375 -7.347656 -5.859375 -9.078125 C -5.984375 -10.816406 -5.21875 -13.039062 -3.5625 -15.75 L -1.828125 -18.78125 C -1.191406 -19.925781 -0.738281 -20.914062 -0.46875 -21.75 C -1.332031 -22.425781 -1.96875 -22.878906 -2.375 -23.109375 C -2.78125 -23.347656 -3.273438 -23.488281 -3.859375 -23.53125 C -4.441406 -23.570312 -5.082031 -23.394531 -5.78125 -23 C -6.476562 -22.601562 -7.21875 -21.914062 -8 -20.9375 C -8.976562 -19.695312 -9.519531 -18.53125 -9.625 -17.4375 C -9.726562 -16.351562 -9.265625 -15.179688 -8.234375 -13.921875 L -10.84375 -11.375 C -12.34375 -13.0625 -13.023438 -14.894531 -12.890625 -16.875 C -12.753906 -18.863281 -11.796875 -20.984375 -10.015625 -23.234375 C -8.410156 -25.285156 -6.921875 -26.550781 -5.546875 -27.03125 C -4.179688 -27.519531 -2.984375 -27.535156 -1.953125 -27.078125 C -0.921875 -26.628906 0.269531 -25.867188 1.625 -24.796875 L 5.515625 -21.734375 C 7.890625 -19.859375 9.519531 -18.648438 10.40625 -18.109375 C 11.289062 -17.566406 12.289062 -17.203125 13.40625 -17.015625 Z M 2.859375 -19.109375 L 1.828125 -19.9375 C 1.140625 -18.03125 0.0820312 -15.863281 -1.34375 -13.4375 C -2.78125 -11.007812 -2.722656 -9.179688 -1.171875 -7.953125 C -0.378906 -7.335938 0.5 -7.125 1.46875 -7.3125 C 2.445312 -7.507812 3.367188 -8.160156 4.234375 -9.265625 C 5.367188 -10.691406 5.9375 -12.285156 5.9375 -14.046875 C 5.945312 -15.804688 4.921875 -17.492188 2.859375 -19.109375 Z M 2.859375 -19.109375 "/></g><g transform="translate(694.459878, 622.929326)"><path style="stroke:none" d="M 6.953125 -8.90625 C 6.441406 -7.90625 5.957031 -7.113281 5.5 -6.53125 C 4.5 -5.257812 3.546875 -4.507812 2.640625 -4.28125 C 1.742188 -4.050781 0.898438 -4.140625 0.109375 -4.546875 C -0.671875 -4.960938 -1.671875 -5.648438 -2.890625 -6.609375 L -12.734375 -14.375 L -14.40625 -12.265625 L -16.65625 -14.03125 L -14.984375 -16.140625 L -19.234375 -19.484375 L -18.703125 -23.78125 L -12.703125 -19.046875 L -10.421875 -21.9375 L -8.171875 -20.171875 L -10.453125 -17.28125 L -0.453125 -9.390625 C 0.398438 -8.710938 1.078125 -8.316406 1.578125 -8.203125 C 2.078125 -8.097656 2.609375 -8.410156 3.171875 -9.140625 C 3.503906 -9.554688 3.800781 -10.019531 4.0625 -10.53125 Z M 6.953125 -8.90625 "/></g><g transform="translate(701.681034, 613.763128)"><path style="stroke:none" d="M 4.015625 -5.109375 L 1.734375 -2.203125 L -15.359375 -15.671875 L -13.078125 -18.578125 Z M -16.3125 -21.125 L -18.59375 -18.21875 L -21.875 -20.8125 L -19.59375 -23.71875 Z M -16.3125 -21.125 "/></g><g transform="translate(707.455421, 606.433392)"><path style="stroke:none" d="M -10.265625 -22.9375 C -8.441406 -25.238281 -6.179688 -26.554688 -3.484375 -26.890625 C -0.785156 -27.234375 1.945312 -26.3125 4.71875 -24.125 C 8.082031 -21.476562 9.8125 -18.785156 9.90625 -16.046875 C 10.007812 -13.316406 9.25 -10.921875 7.625 -8.859375 C 5.925781 -6.691406 3.738281 -5.378906 1.0625 -4.921875 C -1.613281 -4.460938 -4.507812 -5.457031 -7.625 -7.90625 C -10.625 -10.269531 -12.257812 -12.796875 -12.53125 -15.484375 C -12.800781 -18.179688 -12.046875 -20.664062 -10.265625 -22.9375 Z M 5.25 -10.734375 C 6.550781 -12.378906 6.925781 -14.113281 6.375 -15.9375 C 5.820312 -17.757812 4.546875 -19.457031 2.546875 -21.03125 C 0.410156 -22.71875 -1.578125 -23.5 -3.421875 -23.375 C -5.273438 -23.257812 -6.765625 -22.492188 -7.890625 -21.078125 C -9.046875 -19.597656 -9.445312 -17.953125 -9.09375 -16.140625 C -8.738281 -14.328125 -7.472656 -12.566406 -5.296875 -10.859375 C -3.128906 -9.148438 -1.113281 -8.34375 0.75 -8.4375 C 2.613281 -8.53125 4.113281 -9.296875 5.25 -10.734375 Z M 5.25 -10.734375 "/></g><g transform="translate(721.910425, 588.084889)"><path style="stroke:none" d="M 12.75 -16.171875 L 10.4375 -13.25 L 0.046875 -21.4375 C -1.703125 -22.820312 -3.148438 -23.457031 -4.296875 -23.34375 C -5.441406 -23.238281 -6.457031 -22.628906 -7.34375 -21.515625 C -8.019531 -20.648438 -8.445312 -19.664062 -8.625 -18.5625 C -8.8125 -17.457031 -8.648438 -16.445312 -8.140625 -15.53125 C -7.640625 -14.613281 -6.691406 -13.601562 -5.296875 -12.5 L 4.046875 -5.140625 L 1.765625 -2.234375 L -15.328125 -15.703125 L -13.28125 -18.3125 L -10.859375 -16.40625 L -10.796875 -16.46875 C -11.253906 -17.820312 -11.363281 -19.128906 -11.125 -20.390625 C -10.894531 -21.648438 -10.3125 -22.875 -9.375 -24.0625 C -8.664062 -24.957031 -7.800781 -25.71875 -6.78125 -26.34375 C -5.769531 -26.96875 -4.742188 -27.273438 -3.703125 -27.265625 C -2.660156 -27.265625 -1.722656 -27.039062 -0.890625 -26.59375 C -0.0546875 -26.144531 0.984375 -25.429688 2.234375 -24.453125 Z M 12.75 -16.171875 "/></g></g></g></svg>