<svg xmlns="http://www.w3.org/2000/svg" xmlns:xlink="http://www.w3.org/1999/xlink" width="1480" zoomAndPan="magnify" viewBox="0 0 1110 1109.999945" height="1480" preserveAspectRatio="xMidYMid meet" version="1.2"><defs><clipPath id="88bbea55fa"><path d="M 131.574219 1015 L 976.738281 1015 L 976.738281 1089.574219 L 131.574219 1089.574219 Z M 131.574219 1015 "/></clipPath><clipPath id="f02c80625e"><path d="M 239 647 L 976.738281 647 L 976.738281 988 L 239 988 Z M 239 647 "/></clipPath><clipPath id="4b02e6966e"><path d="M 338 22.324219 L 560 22.324219 L 560 581 L 338 581 Z M 338 22.324219 "/></clipPath></defs><g id="1a6b835117"><g clip-rule="nonzero" clip-path="url(#88bbea55fa)"><path style=" stroke:none;fill-rule:nonzero;fill:#000000;fill-opacity:1;" d="M 131.574219 1015.867188 C 131.574219 1056.554688 402.210938 1089.574219 418.128906 1089.574219 L 690.265625 1089.574219 C 706.101562 1089.574219 976.820312 1056.554688 976.820312 1015.867188 L 976.820312 1015.785156 L 131.574219 1015.785156 L 131.574219 1015.867188 "/></g><g clip-rule="nonzero" clip-path="url(#f02c80625e)"><path style=" stroke:none;fill-rule:nonzero;fill:#000000;fill-opacity:1;" d="M 861.714844 736.632812 C 940.230469 739.800781 947.316406 751.140625 947.316406 775.152344 C 947.316406 869.703125 873.050781 912.144531 809.371094 912.144531 C 807.871094 912.144531 806.789062 911.726562 805.371094 911.726562 C 832.628906 860.699219 852.132812 801.332031 861.714844 736.632812 Z M 753.613281 987.769531 C 766.28125 973.011719 778.28125 957.167969 789.203125 939.910156 C 874.800781 950.5 976.820312 894.550781 976.820312 775.152344 C 976.820312 717.703125 932.230469 710.199219 865.800781 707.28125 C 867.46875 689.9375 868.46875 672.347656 868.632812 654.335938 C 868.71875 650.417969 865.46875 647.164062 861.464844 647.164062 L 246.847656 647.164062 C 242.929688 647.164062 239.679688 650.417969 239.761719 654.335938 C 241.261719 788.910156 286.019531 908.058594 354.785156 987.769531 L 753.613281 987.769531 "/></g><g clip-rule="nonzero" clip-path="url(#4b02e6966e)"><path style=" stroke:none;fill-rule:nonzero;fill:#000000;fill-opacity:1;" d="M 382.457031 431.964844 C 387.875 386.023438 416.878906 351.003906 453.71875 315.566406 C 471.890625 297.640625 491.726562 279.546875 510.148438 258.121094 C 528.152344 236.691406 546.320312 211.511719 554.074219 181.328125 C 562.824219 151.644531 560.242188 119.960938 550.90625 93.195312 C 541.152344 66.265625 526.566406 42.835938 508.980469 22.324219 C 523.484375 74.019531 532.734375 126.546875 512.730469 166.738281 C 494.394531 207.425781 453.054688 237.273438 414.460938 275.378906 C 395.042969 294.472656 375.371094 316.066406 360.785156 342.582031 C 346.449219 368.929688 337.195312 400.113281 338.863281 430.296875 C 341.699219 491.082031 371.871094 540.523438 407.210938 580.546875 C 391.539062 529.183594 376.871094 477.988281 382.457031 431.964844 "/></g><path style=" stroke:none;fill-rule:nonzero;fill:#000000;fill-opacity:1;" d="M 554.40625 360.84375 C 540.652344 374.765625 526.402344 390.191406 515.816406 409.203125 C 505.480469 428.210938 498.8125 450.640625 499.980469 472.320312 C 502.0625 516.09375 523.816406 551.695312 549.238281 580.546875 C 537.984375 543.527344 527.402344 506.671875 531.402344 473.570312 C 535.484375 440.636719 555.90625 414.957031 582.660156 389.691406 C 607.75 363.84375 642.257812 337.246094 654.925781 293.054688 C 661.261719 271.628906 659.425781 248.863281 652.757812 229.605469 C 645.675781 210.175781 635.171875 193.335938 622.503906 178.578125 C 633.003906 215.761719 639.671875 253.617188 625.167969 282.550781 C 611.835938 311.648438 582.578125 333.660156 554.40625 360.84375 "/><path style=" stroke:none;fill-rule:nonzero;fill:#000000;fill-opacity:1;" d="M 655.84375 502.671875 C 657.257812 534.269531 673.847656 559.285156 691.265625 580.546875 C 684.179688 553.449219 675.429688 527.601562 678.511719 503.503906 C 681.515625 479.824219 696.433594 461.398438 715.519531 443.136719 C 733.273438 424.378906 758.445312 405.449219 767.113281 373.515625 C 775.867188 341.5 761.28125 311.984375 744.027344 291.054688 C 751.109375 318.152344 755.613281 344.917969 745.695312 365.929688 C 736.523438 387.023438 715.019531 402.699219 695.015625 422.460938 C 685.179688 432.296875 674.929688 443.636719 667.34375 457.3125 C 663.011719 463.566406 661.34375 471.988281 658.507812 479.15625 C 656.425781 486.746094 656.507812 494.914062 655.84375 502.671875 "/><g style="fill:#000000;fill-opacity:1;"><g transform="translate(329.701169, 773.188445)"><path style="stroke:none" d="M 28.0625 0 L 23.5625 0 L 20.03125 -9.140625 L 7.484375 -9.140625 L 4.15625 0 L -0.046875 0 L 11.5 -30.0625 L 15.796875 -30.0625 Z M 18.828125 -12.3125 C 16.367188 -18.8125 14.976562 -22.503906 14.65625 -23.390625 C 14.34375 -24.273438 14 -25.453125 13.625 -26.921875 L 13.515625 -26.921875 C 13.128906 -24.898438 12.617188 -23.03125 11.984375 -21.3125 L 8.609375 -12.3125 Z M 18.828125 -12.3125 "/></g><g transform="translate(357.714838, 773.188445)"><path style="stroke:none" d="M 20.59375 0 L 16.875 0 L 16.875 -13.234375 C 16.875 -15.460938 16.472656 -16.992188 15.671875 -17.828125 C 14.878906 -18.660156 13.769531 -19.078125 12.34375 -19.078125 C 11.25 -19.078125 10.210938 -18.804688 9.234375 -18.265625 C 8.253906 -17.734375 7.5625 -16.984375 7.15625 -16.015625 C 6.75 -15.046875 6.546875 -13.671875 6.546875 -11.890625 L 6.546875 0 L 2.84375 0 L 2.84375 -21.765625 L 6.171875 -21.765625 L 6.171875 -18.6875 L 6.25 -18.6875 C 7.03125 -19.875 7.988281 -20.765625 9.125 -21.359375 C 10.269531 -21.953125 11.597656 -22.25 13.109375 -22.25 C 14.253906 -22.25 15.382812 -22.039062 16.5 -21.625 C 17.625 -21.21875 18.503906 -20.601562 19.140625 -19.78125 C 19.773438 -18.96875 20.175781 -18.09375 20.34375 -17.15625 C 20.507812 -16.226562 20.59375 -14.972656 20.59375 -13.390625 Z M 20.59375 0 "/></g><g transform="translate(381.073234, 773.188445)"><path style="stroke:none" d="M 14.953125 -15.671875 C 14.785156 -16.859375 14.300781 -17.75 13.5 -18.34375 C 12.707031 -18.9375 11.597656 -19.234375 10.171875 -19.234375 C 8.765625 -19.234375 7.625 -18.992188 6.75 -18.515625 C 5.882812 -18.035156 5.453125 -17.335938 5.453125 -16.421875 C 5.453125 -15.566406 5.796875 -14.953125 6.484375 -14.578125 C 7.179688 -14.210938 8.546875 -13.765625 10.578125 -13.234375 C 12.878906 -12.640625 14.597656 -12.117188 15.734375 -11.671875 C 16.878906 -11.222656 17.769531 -10.585938 18.40625 -9.765625 C 19.039062 -8.953125 19.359375 -7.820312 19.359375 -6.375 C 19.359375 -4.4375 18.566406 -2.800781 16.984375 -1.46875 C 15.398438 -0.144531 13.28125 0.515625 10.625 0.515625 C 7.863281 0.515625 5.707031 -0.0664062 4.15625 -1.234375 C 2.601562 -2.410156 1.648438 -4.164062 1.296875 -6.5 L 4.96875 -7.0625 C 5.15625 -5.539062 5.71875 -4.398438 6.65625 -3.640625 C 7.59375 -2.890625 8.898438 -2.515625 10.578125 -2.515625 C 12.191406 -2.515625 13.429688 -2.851562 14.296875 -3.53125 C 15.160156 -4.207031 15.59375 -5.035156 15.59375 -6.015625 C 15.59375 -6.671875 15.390625 -7.195312 14.984375 -7.59375 C 14.585938 -7.988281 14.09375 -8.285156 13.5 -8.484375 C 12.90625 -8.679688 11.570312 -9.03125 9.5 -9.53125 C 6.40625 -10.269531 4.363281 -11.164062 3.375 -12.21875 C 2.382812 -13.269531 1.890625 -14.53125 1.890625 -16 C 1.890625 -17.8125 2.613281 -19.304688 4.0625 -20.484375 C 5.507812 -21.660156 7.457031 -22.25 9.90625 -22.25 C 12.5 -22.25 14.515625 -21.738281 15.953125 -20.71875 C 17.398438 -19.707031 18.269531 -18.1875 18.5625 -16.15625 Z M 14.953125 -15.671875 "/></g><g transform="translate(402.073232, 773.188445)"><path style="stroke:none" d="M 21.671875 0 L 17.796875 0 C 17.441406 -0.6875 17.191406 -1.582031 17.046875 -2.6875 C 14.566406 -0.550781 11.894531 0.515625 9.03125 0.515625 C 6.726562 0.515625 4.910156 -0.0546875 3.578125 -1.203125 C 2.253906 -2.359375 1.59375 -3.878906 1.59375 -5.765625 C 1.59375 -7.566406 2.234375 -9.050781 3.515625 -10.21875 C 4.796875 -11.394531 7.015625 -12.171875 10.171875 -12.546875 L 13.625 -13.0625 C 14.90625 -13.269531 15.960938 -13.523438 16.796875 -13.828125 C 16.796875 -14.929688 16.757812 -15.710938 16.6875 -16.171875 C 16.625 -16.628906 16.425781 -17.101562 16.09375 -17.59375 C 15.757812 -18.082031 15.222656 -18.476562 14.484375 -18.78125 C 13.742188 -19.082031 12.75 -19.234375 11.5 -19.234375 C 9.914062 -19.234375 8.660156 -18.9375 7.734375 -18.34375 C 6.816406 -17.757812 6.1875 -16.671875 5.84375 -15.078125 L 2.234375 -15.546875 C 2.628906 -17.773438 3.644531 -19.445312 5.28125 -20.5625 C 6.925781 -21.6875 9.1875 -22.25 12.0625 -22.25 C 14.664062 -22.25 16.578125 -21.863281 17.796875 -21.09375 C 19.023438 -20.320312 19.78125 -19.390625 20.0625 -18.296875 C 20.34375 -17.203125 20.484375 -15.789062 20.484375 -14.0625 L 20.484375 -9.109375 C 20.484375 -6.085938 20.539062 -4.0625 20.65625 -3.03125 C 20.78125 -2 21.117188 -0.988281 21.671875 0 Z M 16.796875 -9.578125 L 16.796875 -10.90625 C 14.867188 -10.269531 12.507812 -9.757812 9.71875 -9.375 C 6.925781 -9 5.53125 -7.820312 5.53125 -5.84375 C 5.53125 -4.84375 5.90625 -4.019531 6.65625 -3.375 C 7.414062 -2.726562 8.5 -2.40625 9.90625 -2.40625 C 11.726562 -2.40625 13.332031 -2.945312 14.71875 -4.03125 C 16.101562 -5.113281 16.796875 -6.960938 16.796875 -9.578125 Z M 16.796875 -9.578125 "/></g><g transform="translate(425.431628, 773.188445)"><path style="stroke:none" d="M 14.546875 -21.078125 L 13.265625 -17.671875 C 12.347656 -18.210938 11.453125 -18.484375 10.578125 -18.484375 C 9.203125 -18.484375 8.15625 -17.863281 7.4375 -16.625 C 6.726562 -15.382812 6.375 -13.648438 6.375 -11.421875 L 6.375 0 L 2.6875 0 L 2.6875 -21.765625 L 6.046875 -21.765625 L 6.046875 -18.484375 L 6.125 -18.484375 C 7.300781 -20.992188 8.84375 -22.25 10.75 -22.25 C 12.007812 -22.25 13.273438 -21.859375 14.546875 -21.078125 Z M 14.546875 -21.078125 "/></g><g transform="translate(439.417955, 773.188445)"><path style="stroke:none" d=""/></g><g transform="translate(451.086899, 773.188445)"><path style="stroke:none" d="M 29.859375 0 L 24.859375 0 C 21.859375 -4.726562 19.992188 -7.632812 19.265625 -8.71875 C 18.546875 -9.800781 17.785156 -10.726562 16.984375 -11.5 C 16.191406 -12.269531 15.441406 -12.753906 14.734375 -12.953125 C 14.023438 -13.160156 13.09375 -13.265625 11.9375 -13.265625 L 7.34375 -13.265625 L 7.34375 0 L 3.359375 0 L 3.359375 -30.0625 L 16.671875 -30.0625 C 18.492188 -30.0625 20.019531 -29.945312 21.25 -29.71875 C 22.476562 -29.488281 23.554688 -29 24.484375 -28.25 C 25.410156 -27.5 26.125 -26.554688 26.625 -25.421875 C 27.125 -24.296875 27.375 -23.101562 27.375 -21.84375 C 27.375 -19.570312 26.65625 -17.742188 25.21875 -16.359375 C 23.789062 -14.984375 21.703125 -14.109375 18.953125 -13.734375 L 18.953125 -13.65625 C 20.960938 -12.769531 22.847656 -10.945312 24.609375 -8.1875 Z M 7.34375 -16.84375 L 15.875 -16.84375 C 17.59375 -16.84375 18.953125 -16.988281 19.953125 -17.28125 C 20.960938 -17.570312 21.769531 -18.140625 22.375 -18.984375 C 22.976562 -19.835938 23.28125 -20.789062 23.28125 -21.84375 C 23.28125 -23.207031 22.78125 -24.367188 21.78125 -25.328125 C 20.78125 -26.285156 19.132812 -26.765625 16.84375 -26.765625 L 7.34375 -26.765625 Z M 7.34375 -16.84375 "/></g><g transform="translate(481.417951, 773.188445)"><path style="stroke:none" d="M 21.71875 -9.953125 L 5.421875 -9.953125 C 5.566406 -7.546875 6.25 -5.703125 7.46875 -4.421875 C 8.695312 -3.148438 10.226562 -2.515625 12.0625 -2.515625 C 13.46875 -2.515625 14.648438 -2.890625 15.609375 -3.640625 C 16.566406 -4.390625 17.296875 -5.515625 17.796875 -7.015625 L 21.59375 -6.546875 C 20.976562 -4.273438 19.847656 -2.53125 18.203125 -1.3125 C 16.566406 -0.09375 14.519531 0.515625 12.0625 0.515625 C 8.789062 0.515625 6.234375 -0.484375 4.390625 -2.484375 C 2.554688 -4.492188 1.640625 -7.234375 1.640625 -10.703125 C 1.640625 -14.140625 2.53125 -16.921875 4.3125 -19.046875 C 6.101562 -21.179688 8.617188 -22.25 11.859375 -22.25 C 13.441406 -22.25 14.96875 -21.898438 16.4375 -21.203125 C 17.90625 -20.503906 19.148438 -19.316406 20.171875 -17.640625 C 21.203125 -15.972656 21.71875 -13.410156 21.71875 -9.953125 Z M 17.921875 -12.984375 C 17.773438 -15.191406 17.085938 -16.785156 15.859375 -17.765625 C 14.640625 -18.742188 13.304688 -19.234375 11.859375 -19.234375 C 10.117188 -19.234375 8.6875 -18.648438 7.5625 -17.484375 C 6.445312 -16.328125 5.800781 -14.828125 5.625 -12.984375 Z M 17.921875 -12.984375 "/></g><g transform="translate(504.776347, 773.188445)"><path style="stroke:none" d="M 6.5 0 L 2.8125 0 L 2.8125 -30.0625 L 6.5 -30.0625 Z M 6.5 0 "/></g><g transform="translate(514.107401, 773.188445)"><path style="stroke:none" d="M 6.5 0 L 2.8125 0 L 2.8125 -21.765625 L 6.5 -21.765625 Z M 6.5 -25.875 L 2.8125 -25.875 L 2.8125 -30.0625 L 6.5 -30.0625 Z M 6.5 -25.875 "/></g><g transform="translate(523.438455, 773.188445)"><path style="stroke:none" d="M 21.71875 -9.953125 L 5.421875 -9.953125 C 5.566406 -7.546875 6.25 -5.703125 7.46875 -4.421875 C 8.695312 -3.148438 10.226562 -2.515625 12.0625 -2.515625 C 13.46875 -2.515625 14.648438 -2.890625 15.609375 -3.640625 C 16.566406 -4.390625 17.296875 -5.515625 17.796875 -7.015625 L 21.59375 -6.546875 C 20.976562 -4.273438 19.847656 -2.53125 18.203125 -1.3125 C 16.566406 -0.09375 14.519531 0.515625 12.0625 0.515625 C 8.789062 0.515625 6.234375 -0.484375 4.390625 -2.484375 C 2.554688 -4.492188 1.640625 -7.234375 1.640625 -10.703125 C 1.640625 -14.140625 2.53125 -16.921875 4.3125 -19.046875 C 6.101562 -21.179688 8.617188 -22.25 11.859375 -22.25 C 13.441406 -22.25 14.96875 -21.898438 16.4375 -21.203125 C 17.90625 -20.503906 19.148438 -19.316406 20.171875 -17.640625 C 21.203125 -15.972656 21.71875 -13.410156 21.71875 -9.953125 Z M 17.921875 -12.984375 C 17.773438 -15.191406 17.085938 -16.785156 15.859375 -17.765625 C 14.640625 -18.742188 13.304688 -19.234375 11.859375 -19.234375 C 10.117188 -19.234375 8.6875 -18.648438 7.5625 -17.484375 C 6.445312 -16.328125 5.800781 -14.828125 5.625 -12.984375 Z M 17.921875 -12.984375 "/></g><g transform="translate(546.796851, 773.188445)"><path style="stroke:none" d="M 13.0625 -30.203125 L 12.515625 -26.96875 C 11.773438 -27.101562 11.050781 -27.171875 10.34375 -27.171875 C 9.445312 -27.171875 8.710938 -26.984375 8.140625 -26.609375 C 7.578125 -26.234375 7.296875 -25.300781 7.296875 -23.8125 L 7.296875 -21.765625 L 11.5 -21.765625 L 11.5 -18.90625 L 7.296875 -18.90625 L 7.296875 0 L 3.609375 0 L 3.609375 -18.90625 L 0.328125 -18.90625 L 0.328125 -21.765625 L 3.609375 -21.765625 L 3.609375 -24.125 C 3.609375 -25.21875 3.707031 -26.207031 3.90625 -27.09375 C 4.113281 -27.976562 4.660156 -28.78125 5.546875 -29.5 C 6.429688 -30.21875 7.789062 -30.578125 9.625 -30.578125 C 10.71875 -30.578125 11.863281 -30.453125 13.0625 -30.203125 Z M 13.0625 -30.203125 "/></g><g transform="translate(558.465796, 773.188445)"><path style="stroke:none" d=""/></g><g transform="translate(570.13474, 773.188445)"><path style="stroke:none" d="M 23.640625 -26.5 L 7.34375 -26.5 L 7.34375 -17.1875 L 21.46875 -17.1875 L 21.46875 -13.625 L 7.34375 -13.625 L 7.34375 0 L 3.359375 0 L 3.359375 -30.0625 L 23.640625 -30.0625 Z M 23.640625 -26.5 "/></g><g transform="translate(595.790011, 773.188445)"><path style="stroke:none" d="M 11.671875 -22.25 C 14.609375 -22.25 17.039062 -21.289062 18.96875 -19.375 C 20.90625 -17.46875 21.875 -14.75 21.875 -11.21875 C 21.875 -6.9375 20.828125 -3.910156 18.734375 -2.140625 C 16.648438 -0.367188 14.296875 0.515625 11.671875 0.515625 C 8.921875 0.515625 6.535156 -0.390625 4.515625 -2.203125 C 2.492188 -4.023438 1.484375 -6.914062 1.484375 -10.875 C 1.484375 -14.695312 2.457031 -17.546875 4.40625 -19.421875 C 6.363281 -21.304688 8.785156 -22.25 11.671875 -22.25 Z M 11.671875 -2.515625 C 13.773438 -2.515625 15.375 -3.296875 16.46875 -4.859375 C 17.5625 -6.421875 18.109375 -8.472656 18.109375 -11.015625 C 18.109375 -13.734375 17.488281 -15.78125 16.25 -17.15625 C 15.007812 -18.539062 13.484375 -19.234375 11.671875 -19.234375 C 9.796875 -19.234375 8.253906 -18.53125 7.046875 -17.125 C 5.847656 -15.726562 5.25 -13.644531 5.25 -10.875 C 5.25 -8.113281 5.859375 -6.03125 7.078125 -4.625 C 8.304688 -3.21875 9.835938 -2.515625 11.671875 -2.515625 Z M 11.671875 -2.515625 "/></g><g transform="translate(619.148407, 773.188445)"><path style="stroke:none" d="M 20.453125 0 L 17.140625 0 L 17.140625 -3.203125 L 17.046875 -3.203125 C 15.378906 -0.722656 13.101562 0.515625 10.21875 0.515625 C 8.695312 0.515625 7.289062 0.164062 6 -0.53125 C 4.707031 -1.238281 3.84375 -2.210938 3.40625 -3.453125 C 2.976562 -4.691406 2.765625 -6.296875 2.765625 -8.265625 L 2.765625 -21.765625 L 6.453125 -21.765625 L 6.453125 -9.703125 C 6.453125 -7.773438 6.546875 -6.394531 6.734375 -5.5625 C 6.921875 -4.726562 7.40625 -4.039062 8.1875 -3.5 C 8.96875 -2.957031 9.894531 -2.6875 10.96875 -2.6875 C 12.363281 -2.6875 13.675781 -3.164062 14.90625 -4.125 C 16.132812 -5.09375 16.75 -7.09375 16.75 -10.125 L 16.75 -21.765625 L 20.453125 -21.765625 Z M 20.453125 0 "/></g><g transform="translate(642.506803, 773.188445)"><path style="stroke:none" d="M 20.59375 0 L 16.875 0 L 16.875 -13.234375 C 16.875 -15.460938 16.472656 -16.992188 15.671875 -17.828125 C 14.878906 -18.660156 13.769531 -19.078125 12.34375 -19.078125 C 11.25 -19.078125 10.210938 -18.804688 9.234375 -18.265625 C 8.253906 -17.734375 7.5625 -16.984375 7.15625 -16.015625 C 6.75 -15.046875 6.546875 -13.671875 6.546875 -11.890625 L 6.546875 0 L 2.84375 0 L 2.84375 -21.765625 L 6.171875 -21.765625 L 6.171875 -18.6875 L 6.25 -18.6875 C 7.03125 -19.875 7.988281 -20.765625 9.125 -21.359375 C 10.269531 -21.953125 11.597656 -22.25 13.109375 -22.25 C 14.253906 -22.25 15.382812 -22.039062 16.5 -21.625 C 17.625 -21.21875 18.503906 -20.601562 19.140625 -19.78125 C 19.773438 -18.96875 20.175781 -18.09375 20.34375 -17.15625 C 20.507812 -16.226562 20.59375 -14.972656 20.59375 -13.390625 Z M 20.59375 0 "/></g><g transform="translate(665.865199, 773.188445)"><path style="stroke:none" d="M 20.40625 0 L 16.953125 0 L 16.953125 -2.765625 L 16.875 -2.765625 C 15.550781 -0.578125 13.550781 0.515625 10.875 0.515625 C 8.207031 0.515625 5.976562 -0.539062 4.1875 -2.65625 C 2.40625 -4.769531 1.515625 -7.507812 1.515625 -10.875 C 1.515625 -14.382812 2.351562 -17.15625 4.03125 -19.1875 C 5.71875 -21.226562 7.941406 -22.25 10.703125 -22.25 C 13.304688 -22.25 15.28125 -21.257812 16.625 -19.28125 L 16.71875 -19.28125 L 16.71875 -30.0625 L 20.40625 -30.0625 Z M 11.265625 -2.515625 C 12.867188 -2.515625 14.234375 -3.175781 15.359375 -4.5 C 16.484375 -5.832031 17.046875 -7.847656 17.046875 -10.546875 C 17.046875 -13.191406 16.53125 -15.300781 15.5 -16.875 C 14.476562 -18.445312 13.007812 -19.234375 11.09375 -19.234375 C 9.175781 -19.234375 7.726562 -18.460938 6.75 -16.921875 C 5.78125 -15.390625 5.296875 -13.375 5.296875 -10.875 C 5.296875 -9.0625 5.554688 -7.53125 6.078125 -6.28125 C 6.609375 -5.03125 7.34375 -4.085938 8.28125 -3.453125 C 9.226562 -2.828125 10.222656 -2.515625 11.265625 -2.515625 Z M 11.265625 -2.515625 "/></g><g transform="translate(689.223595, 773.188445)"><path style="stroke:none" d="M 21.671875 0 L 17.796875 0 C 17.441406 -0.6875 17.191406 -1.582031 17.046875 -2.6875 C 14.566406 -0.550781 11.894531 0.515625 9.03125 0.515625 C 6.726562 0.515625 4.910156 -0.0546875 3.578125 -1.203125 C 2.253906 -2.359375 1.59375 -3.878906 1.59375 -5.765625 C 1.59375 -7.566406 2.234375 -9.050781 3.515625 -10.21875 C 4.796875 -11.394531 7.015625 -12.171875 10.171875 -12.546875 L 13.625 -13.0625 C 14.90625 -13.269531 15.960938 -13.523438 16.796875 -13.828125 C 16.796875 -14.929688 16.757812 -15.710938 16.6875 -16.171875 C 16.625 -16.628906 16.425781 -17.101562 16.09375 -17.59375 C 15.757812 -18.082031 15.222656 -18.476562 14.484375 -18.78125 C 13.742188 -19.082031 12.75 -19.234375 11.5 -19.234375 C 9.914062 -19.234375 8.660156 -18.9375 7.734375 -18.34375 C 6.816406 -17.757812 6.1875 -16.671875 5.84375 -15.078125 L 2.234375 -15.546875 C 2.628906 -17.773438 3.644531 -19.445312 5.28125 -20.5625 C 6.925781 -21.6875 9.1875 -22.25 12.0625 -22.25 C 14.664062 -22.25 16.578125 -21.863281 17.796875 -21.09375 C 19.023438 -20.320312 19.78125 -19.390625 20.0625 -18.296875 C 20.34375 -17.203125 20.484375 -15.789062 20.484375 -14.0625 L 20.484375 -9.109375 C 20.484375 -6.085938 20.539062 -4.0625 20.65625 -3.03125 C 20.78125 -2 21.117188 -0.988281 21.671875 0 Z M 16.796875 -9.578125 L 16.796875 -10.90625 C 14.867188 -10.269531 12.507812 -9.757812 9.71875 -9.375 C 6.925781 -9 5.53125 -7.820312 5.53125 -5.84375 C 5.53125 -4.84375 5.90625 -4.019531 6.65625 -3.375 C 7.414062 -2.726562 8.5 -2.40625 9.90625 -2.40625 C 11.726562 -2.40625 13.332031 -2.945312 14.71875 -4.03125 C 16.101562 -5.113281 16.796875 -6.960938 16.796875 -9.578125 Z M 16.796875 -9.578125 "/></g><g transform="translate(712.581992, 773.188445)"><path style="stroke:none" d="M 11.296875 -0.046875 C 10.203125 0.171875 9.28125 0.28125 8.53125 0.28125 C 6.914062 0.28125 5.738281 0 5 -0.5625 C 4.257812 -1.132812 3.804688 -1.859375 3.640625 -2.734375 C 3.484375 -3.609375 3.40625 -4.820312 3.40625 -6.375 L 3.40625 -18.90625 L 0.71875 -18.90625 L 0.71875 -21.765625 L 3.40625 -21.765625 L 3.40625 -27.171875 L 7.09375 -29.40625 L 7.09375 -21.765625 L 10.78125 -21.765625 L 10.78125 -18.90625 L 7.09375 -18.90625 L 7.09375 -6.171875 C 7.09375 -5.078125 7.203125 -4.300781 7.421875 -3.84375 C 7.648438 -3.382812 8.222656 -3.15625 9.140625 -3.15625 C 9.679688 -3.15625 10.226562 -3.210938 10.78125 -3.328125 Z M 11.296875 -0.046875 "/></g><g transform="translate(724.250936, 773.188445)"><path style="stroke:none" d="M 6.5 0 L 2.8125 0 L 2.8125 -21.765625 L 6.5 -21.765625 Z M 6.5 -25.875 L 2.8125 -25.875 L 2.8125 -30.0625 L 6.5 -30.0625 Z M 6.5 -25.875 "/></g><g transform="translate(733.58199, 773.188445)"><path style="stroke:none" d="M 11.671875 -22.25 C 14.609375 -22.25 17.039062 -21.289062 18.96875 -19.375 C 20.90625 -17.46875 21.875 -14.75 21.875 -11.21875 C 21.875 -6.9375 20.828125 -3.910156 18.734375 -2.140625 C 16.648438 -0.367188 14.296875 0.515625 11.671875 0.515625 C 8.921875 0.515625 6.535156 -0.390625 4.515625 -2.203125 C 2.492188 -4.023438 1.484375 -6.914062 1.484375 -10.875 C 1.484375 -14.695312 2.457031 -17.546875 4.40625 -19.421875 C 6.363281 -21.304688 8.785156 -22.25 11.671875 -22.25 Z M 11.671875 -2.515625 C 13.773438 -2.515625 15.375 -3.296875 16.46875 -4.859375 C 17.5625 -6.421875 18.109375 -8.472656 18.109375 -11.015625 C 18.109375 -13.734375 17.488281 -15.78125 16.25 -17.15625 C 15.007812 -18.539062 13.484375 -19.234375 11.671875 -19.234375 C 9.796875 -19.234375 8.253906 -18.53125 7.046875 -17.125 C 5.847656 -15.726562 5.25 -13.644531 5.25 -10.875 C 5.25 -8.113281 5.859375 -6.03125 7.078125 -4.625 C 8.304688 -3.21875 9.835938 -2.515625 11.671875 -2.515625 Z M 11.671875 -2.515625 "/></g><g transform="translate(756.940386, 773.188445)"><path style="stroke:none" d="M 20.59375 0 L 16.875 0 L 16.875 -13.234375 C 16.875 -15.460938 16.472656 -16.992188 15.671875 -17.828125 C 14.878906 -18.660156 13.769531 -19.078125 12.34375 -19.078125 C 11.25 -19.078125 10.210938 -18.804688 9.234375 -18.265625 C 8.253906 -17.734375 7.5625 -16.984375 7.15625 -16.015625 C 6.75 -15.046875 6.546875 -13.671875 6.546875 -11.890625 L 6.546875 0 L 2.84375 0 L 2.84375 -21.765625 L 6.171875 -21.765625 L 6.171875 -18.6875 L 6.25 -18.6875 C 7.03125 -19.875 7.988281 -20.765625 9.125 -21.359375 C 10.269531 -21.953125 11.597656 -22.25 13.109375 -22.25 C 14.253906 -22.25 15.382812 -22.039062 16.5 -21.625 C 17.625 -21.21875 18.503906 -20.601562 19.140625 -19.78125 C 19.773438 -18.96875 20.175781 -18.09375 20.34375 -17.15625 C 20.507812 -16.226562 20.59375 -14.972656 20.59375 -13.390625 Z M 20.59375 0 "/></g></g></g></svg>